<svg xmlns="http://www.w3.org/2000/svg" version="1.1" xmlns:xlink="http://www.w3.org/1999/xlink" xmlns:svgjs="http://svgjs.dev/svgjs" viewBox="0 0 1920 1080"><rect width="1920" height="1080" fill="#ffded3"></rect><g transform="matrix(1.1108147002324285,0.29764190186789885,-0.29764190186789885,1.1108147002324285,58.85090711666567,-333.47225368667955)"><path d="M0,-1080C13.320773980785836,-1006.304226612579,78.38893572748339,-783.9860865718808,79.92464388471501,-637.8253596754743C81.46035204194663,-491.6646327790677,17.60243904967458,-344.4404603366624,9.214248943389777,-203.03563862156074C0.8260588371049717,-61.630816906459074,24.244629018902785,49.47297271312527,29.595503247006178,210.60357061513574C34.94637747510957,371.7341685171462,59.80713055834168,579.1696228306683,41.319494312010136,763.747948790502C22.831858065678585,948.3262747503358,-81.65969419785081,1154.1686904121889,-81.33031423098313,1318.0735263741378C-81.00093426411546,1481.9783623360868,29.740721741385677,1606.8558856245525,43.2957741132162,1747.1769645621962C56.85082648504672,1887.49804349984,7.215962352202699,2091.196160760366,0,2160L 1920 2160 L 1920 -1080 Z" fill="url(&quot;#SvgjsLinearGradient1178&quot;)"></path><path d="M274.2857142857143,-1080C290.7678572871997,-990.4548751885104,357.7078152517462,-721.2309366193133,373.1785722946268,-542.7292511310626C388.6493293375074,-364.2275656428119,394.22600358431697,-204.46630551167763,367.11025654299794,-8.989887070495513C339.9945095016789,186.4865313706866,220.49145228488314,443.54158573615484,210.48409004671254,630.1292595160301C200.47672780854194,816.7169332959053,296.39397332909107,958.3873224339022,307.0660831139744,1110.536155608756C317.73819289885773,1262.6849887836097,279.98014356072247,1368.1116178332786,274.5167487560124,1543.0222585651527C269.05335395130237,1717.9328992970268,274.32422003076397,2057.1703764275253,274.2857142857143,2160L 1920 2160 L 1920 -1080 Z" fill="url(&quot;#SvgjsLinearGradient1179&quot;)"></path><path d="M548.5714285714286,-1080C534.6740755654755,-955.779080718028,478.0684707571619,-563.0158062617561,465.18731053571037,-334.67448430816825C452.30615031425884,-106.33316235458045,448.2722387600898,72.88501751715026,471.2844672427193,290.04793172152677C494.2966957253488,507.2108459259033,576.9118403925555,772.3446172714152,603.2606814314875,968.3030009180907C629.6095224704194,1164.261384564766,638.4923889529872,1267.1820670879276,629.3775134763107,1465.798233601579C620.2626379996342,1664.4144001152306,562.0391093889089,2044.2997056002632,548.5714285714286,2160L 1920 2160 L 1920 -1080 Z" fill="url(&quot;#SvgjsLinearGradient1180&quot;)"></path><path d="M822.8571428571428,-1080C818.1392598849584,-947.9975167561844,803.8453516204,-547.1279749258881,794.5498450240364,-287.9851005371066C785.2543384276727,-28.84222614832504,758.4787283358138,185.32170655476233,767.0841032789609,474.85724633268916C775.689478222108,764.392786110616,836.8865880865552,1168.371012519236,846.1820946829189,1449.2281381304545C855.4776012792826,1730.0852637416729,826.7446348281055,2041.5380230217424,822.8571428571428,2160L 1920 2160 L 1920 -1080 Z" fill="url(&quot;#SvgjsLinearGradient1181&quot;)"></path><path d="M1097.142857142857,-1080C1107.6759930886851,-1009.8573716627453,1168.8979926992135,-809.8181736950143,1160.3416728178252,-659.1442299764718C1151.7853529364368,-508.4702862579294,1066.4033089062616,-344.6327498038801,1045.8049378545263,-175.95633768874563C1025.206566802791,-7.279925573611166,1033.6446609846446,192.1813677094129,1036.751446507414,352.9142427143351C1039.8582320301832,513.6471177192573,1046.1206130793228,629.3217958759692,1064.4456509911427,788.4409123407875C1082.7706889029625,947.5600288056057,1128.8667196775361,1152.6545877534904,1146.7016739783332,1307.628941503245C1164.5366282791304,1462.6032952529995,1179.7151796018377,1576.2251917565227,1171.455376795925,1718.287034839315C1163.1955739900125,1860.3488779221075,1109.5282770850351,2086.381172473219,1097.142857142857,2160L 1920 2160 L 1920 -1080 Z" fill="url(&quot;#SvgjsLinearGradient1182&quot;)"></path><path d="M1371.4285714285716,-1080C1380.2750284696542,-995.1537177437053,1418.536358365095,-712.3294430002625,1424.507313675067,-570.9223064622321C1430.478268985039,-429.5151699242017,1402.4300225666323,-391.72638312589356,1407.2543032884034,-231.55718077181743C1412.0785840101746,-71.3879784177413,1466.3535335437316,232.55558665273622,1453.452998005694,390.09290766222466C1440.5524624676566,547.6302286717131,1351.8524701512563,568.8373973156994,1329.8510900601789,713.6667452851132C1307.8497099691015,858.496093254527,1305.4665045272786,1105.8328218156566,1321.4447174592292,1259.0689954787072C1337.4229303911798,1412.3051691417577,1417.389725323659,1482.9286198432014,1425.7203676518827,1633.083787263417C1434.0510099801065,1783.2389546836325,1380.4772041324568,2072.1806312105696,1371.4285714285716,2160L 1920 2160 L 1920 -1080 Z" fill="url(&quot;#SvgjsLinearGradient1183&quot;)"></path><path d="M1645.7142857142856,-1080C1663.028512571122,-974.4614196417755,1737.7582361534548,-666.3737639692656,1749.5996468553044,-446.768517850653C1761.441057557154,-227.16327173204039,1737.087776693556,21.41280282349598,1716.762749925383,237.63147671167548C1696.4377231572103,453.85015059985494,1655.878030558187,634.7397289662671,1627.6494862462673,850.5435254784239C1599.4209419343476,1066.347321990581,1544.380684142529,1314.2115100310207,1547.3914840538653,1532.4542557846166C1550.4022839652016,1750.6970015382126,1629.3271521042154,2055.4090426307694,1645.7142857142856,2160L 1920 2160 L 1920 -1080 Z" fill="url(&quot;#SvgjsLinearGradient1184&quot;)"></path></g><defs><linearGradient x1="0.1" y1="0" x2="0" y2="1" id="SvgjsLinearGradient1178"><stop stop-color="#ffded3" offset="0"></stop><stop stop-color="#ffd7d3" offset="0"></stop></linearGradient><linearGradient x1="0.1" y1="0" x2="0" y2="1" id="SvgjsLinearGradient1179"><stop stop-color="#ffe3da" offset="0"></stop><stop stop-color="#ffddda" offset="0.14285714285714285"></stop></linearGradient><linearGradient x1="0.1" y1="0" x2="0" y2="1" id="SvgjsLinearGradient1180"><stop stop-color="#ffe8e1" offset="0"></stop><stop stop-color="#ffe3e1" offset="0.2857142857142857"></stop></linearGradient><linearGradient x1="0.1" y1="0" x2="0" y2="1" id="SvgjsLinearGradient1181"><stop stop-color="#ffeee8" offset="0"></stop><stop stop-color="#ffeae8" offset="0.42857142857142855"></stop></linearGradient><linearGradient x1="0.1" y1="0" x2="0" y2="1" id="SvgjsLinearGradient1182"><stop stop-color="#fff3ef" offset="0"></stop><stop stop-color="#fff0ef" offset="0.5714285714285714"></stop></linearGradient><linearGradient x1="0.1" y1="0" x2="0" y2="1" id="SvgjsLinearGradient1183"><stop stop-color="#fff8f6" offset="0"></stop><stop stop-color="#fff6f6" offset="0.7142857142857143"></stop></linearGradient><linearGradient x1="0.1" y1="0" x2="0" y2="1" id="SvgjsLinearGradient1184"><stop stop-color="#fffdfd" offset="0"></stop><stop stop-color="#fffdfd" offset="0.8571428571428571"></stop></linearGradient></defs></svg>